<svg xmlns="http://www.w3.org/2000/svg" viewBox="0 0 1108.15 1139.59"><defs><style>.cls-1,.cls-2{fill-rule:evenodd;}.cls-2{fill:#fed00d;}</style></defs><title>Recurso 1</title><g id="Capa_2" data-name="Capa 2"><g id="Layer_1" data-name="Layer 1"><path class="cls-1" d="M727.74,570.41c0,98.13-.16,196.26.11,294.38.09,33.25,3.85,66.17,18.58,96.53,24.08,49.67,74.24,72.95,135.74,64,56.05-8.19,93.41-47.79,102.36-108.57,8.61-58.44,3-117.24,3.72-175.87.19-16.68,3.26-22.86,21.2-21.8,28.23,1.68,56.64.55,85,.38,7.54,0,13.8.16,13.53,10.47-2.07,80.5,6.75,161.6-15.23,240.93-27.83,100.44-106.43,162.92-210.37,167.29-40.19,1.69-80,1.22-118.61-11.53-92.22-30.43-135.67-99.9-152.35-190.74-5.52-30-6.15-60.44-6.19-90.79q-.37-276.75-.15-553.51c0-52.67,4.8-104.36,25.53-153.72C662.11,62.71,719.38,20.43,798,6.39c58.77-10.5,117.31-7.1,172.44,16.93,79.59,34.7,116,101.68,130.07,183.51,9.14,53.38,7,107.35,7.6,161.19.13,12.09-4.06,15.28-15.59,15-29.69-.69-59.44-.79-89.13,0-12,.34-14.84-3.61-15-15.19-.6-46.9,3.74-94-3.88-140.69-8-49.24-28.44-90.43-80-105.16-51.9-14.8-102-10.77-140.95,32-29,31.82-35.31,72.56-35.61,113.72C727.25,368.63,727.73,469.52,727.74,570.41Z"/><path class="cls-2" d="M442,309.93c-14.5,0-29.07-.8-43.5.23-13.28.95-16.33-4.54-16-16.78.73-28.29.94-56.88-6.27-84.42-20.34-77.76-64.66-95.13-123.81-94.77-67.19.4-108.42,38.17-119.83,102.6-15,84.58,6.7,157.88,65,220.91,49,53,108.21,94.2,162.05,141.59,64.4,56.7,117.59,121.19,134.4,207.63,18.46,94.9,11,186.82-47.81,268.33-24.94,34.55-59.92,56.52-100.32,69.26-61.48,19.38-123.74,20.23-185.25,1.69C71.16,1099.22,26.3,1033,8.54,945.27-.54,900.39-.08,854.73,0,809.15c0-9.83,2.75-13.19,12.79-13,30.38.55,60.81.79,91.18-.1,12.22-.35,12.91,5.22,12.89,14.79-.08,39.28-2,78.63,7.06,117.45,15.86,68.38,57.16,98.29,134.71,96.72,59-1.2,102.42-40.52,114.48-102.2,16.93-86.56-7.06-160.58-66.72-224.11C269,658.8,225.58,625.63,183.64,590.82c-64-53.13-125.88-108.49-155.73-189.3-33.35-90.26-31.34-181,4.63-270C57.54,69.67,103.7,30.06,168.47,12.2c63-17.39,125.82-16.88,186.77,6C437.42,49,477.61,114.38,493.16,197.31c6.1,32.56,8.39,65.6,8.63,98.81.08,11.08-3.57,14.47-14.21,14C472.41,309.41,457.19,309.93,442,309.93Z"/></g></g></svg>