<?xml version="1.0" encoding="utf-8"?>
<!-- Generator: Adobe Illustrator 16.0.0, SVG Export Plug-In . SVG Version: 6.00 Build 0)  -->
<!DOCTYPE svg PUBLIC "-//W3C//DTD SVG 1.1//EN" "http://www.w3.org/Graphics/SVG/1.1/DTD/svg11.dtd">
<svg version="1.1" id="Layer_1" xmlns="http://www.w3.org/2000/svg" xmlns:xlink="http://www.w3.org/1999/xlink" x="0px" y="0px"
	 width="5937px" height="1826.939px" viewBox="0 0 5937 1826.939" enable-background="new 0 0 5937 1826.939" xml:space="preserve">
<g>
	<path fill-rule="evenodd" clip-rule="evenodd" d="M4864.962,1230.688c0-7.304,0-14.606,0-21.911
		c0-248.764,0.269-497.53-0.513-746.292c-0.063-19.727,5.827-24.128,23.956-23.035c24.787,1.494,49.739,0.736,74.603,0.197
		c9.755-0.21,14.314,2.656,12.962,12.853c-0.449,3.396-0.069,6.9-0.069,10.355c0,355.871-0.239,711.744,0.583,1067.611
		c0.054,21.913-6.2,26.688-26.42,25.438c-28.223-1.747-56.679-1.375-84.948-0.048c-14.347,0.672-20.344-4.154-24.554-17.555
		c-69.094-219.976-138.663-439.801-208.117-659.663c-20.879-66.094-41.663-132.218-62.775-198.238
		c-1.505-4.698-1.541-10.697-8.055-14.535c0,8.476,0,15.938,0,23.401c0,281.24-0.173,562.484,0.406,843.725
		c0.037,17.723-3.241,24.626-22.38,22.926c-21.94-1.948-44.261-1.596-66.272-0.097c-18.041,1.229-24.195-3.115-23.998-22.925
		c1.107-112.624,0.536-225.263,0.536-337.899c0-244.618,0.165-489.235-0.375-733.853c-0.037-16.33,2.445-22.572,20.702-21.827
		c40.013,1.634,80.149,1.07,120.21,0.191c13.4-0.295,18.381,4.103,22.489,16.979c80.688,252.991,162.025,505.776,243.252,758.598
		c1.774,5.521,3.791,10.961,5.693,16.439C4862.906,1231.245,4863.935,1230.967,4864.962,1230.688z"/>
	<path fill-rule="evenodd" clip-rule="evenodd" fill="#FED00D" d="M1394.069,998.57c0,107.051,2.008,214.152-0.736,321.133
		c-1.71,66.713-22.194,128.402-70.643,178.067c-34.011,34.866-75.476,54.696-122.744,62.531
		c-55.044,9.124-110.183,9.356-163.164-10.446c-83.181-31.088-126.497-95.443-144.462-179.465
		c-5.63-26.326-8.356-53.069-8.353-80.045c0.021-196.848-0.093-393.694,0.116-590.541c0.048-46.528,7.407-92.062,26.012-134.886
		c39.148-90.1,112.363-129.994,206.784-136.434c48.667-3.319,96.531,2.185,141.413,22.463
		c81.41,36.783,117.761,105.347,131.639,189.466c4.748,28.777,5.166,57.739,5.243,86.715c0.237,90.479,0.087,180.96,0.087,271.44
		C1394.865,998.569,1394.467,998.569,1394.069,998.57z M1269.664,998.082c-0.027-0.001-0.053-0.002-0.079-0.002
		c0-107.781,1.206-215.58-0.399-323.337c-1.184-79.577-42.363-125.63-118.749-132.652c-61.432-5.646-113.004,20.305-133.639,86.079
		c-6.875,21.912-9.214,44.412-9.2,67.34c0.118,198.315,0.068,396.63,0.078,594.945c0,20.036,0.488,40.031,4.97,59.702
		c10.827,47.516,34.815,84.539,84.665,96.827c49.935,12.308,97.942,8.324,136.171-31.108c25.124-25.912,35.44-59.396,35.79-94.449
		C1270.346,1213.654,1269.664,1105.865,1269.664,998.082z"/>
	<path fill-rule="evenodd" clip-rule="evenodd" d="M3821.756,971.915c1.694-89.323-5.642-200.061,2.814-310.236
		c10.878-141.721,95.952-229.774,243.312-233.618c63.634-1.658,123.713,10.679,174.522,51.189
		c56.864,45.339,79.514,108.371,87.578,178.354c4.762,41.323,3.73,82.728,3.75,124.132c0.081,165.755,0.095,331.513-0.016,497.269
		c-0.029,44.302-4.896,87.917-19.634,130.075c-32.273,92.328-106.324,148.821-203.686,155.029
		c-42.158,2.688-84.089,2.15-124.814-10.996c-94.385-30.47-140.428-100.329-157.589-193.737c-5.52-30.04-6.006-60.407-6.115-90.738
		C3821.546,1176.782,3821.756,1084.925,3821.756,971.915z M4209.413,999.199c0-34.53,0.617-69.075-0.126-103.588
		c-1.692-78.627,4.647-157.388-3.832-235.896c-7.635-70.675-47.445-112.241-117.875-117.865
		c-60.314-4.816-112.183,20.548-132.403,84.869c-7.076,22.511-10.692,45.56-10.7,69.096c-0.08,197.511-0.009,395.021-0.088,592.532
		c-0.01,24.254,2.494,48.231,8.41,71.668c13.126,52.006,50.842,85.586,101.96,91.771c61.911,7.49,110.776-14.725,134.751-62.251
		c16.194-32.098,19.856-66.979,19.88-102.359C4209.457,1191.185,4209.413,1095.191,4209.413,999.199z"/>
	<path fill-rule="evenodd" clip-rule="evenodd" fill="#FED00D" d="M2881.688,1555.458c-38.905,0-76.728-0.209-114.546,0.116
		c-12.891,0.11-11.378-9.877-12.811-17.163c-12.596-64.106-25.331-128.193-36.781-192.509c-2.152-12.087-5.674-16.118-17.916-16.053
		c-84.275,0.443-168.553,0.377-252.829,0.057c-10.906-0.041-14.919,2.878-16.984,14.576
		c-11.483,65.009-24.594,129.728-36.474,194.669c-2.258,12.347-6.593,17.277-19.997,16.675c-26.886-1.214-53.906-1.233-80.792-0.011
		c-14.458,0.655-17.713-3.972-15.077-17.322c13.191-66.79,25.998-133.656,38.822-200.521
		c31.216-162.769,62.416-325.539,93.528-488.327c25.175-131.72,50.302-263.449,75.157-395.229
		c2.205-11.688,7.363-15.117,19.361-14.926c49.725,0.794,99.472,0.622,149.204,0.119c11.593-0.118,15.919,2.549,18.34,15.292
		c58.523,308.09,117.801,616.037,176.819,924.031C2859.835,1436.974,2870.43,1495.113,2881.688,1555.458z M2573.279,590.999
		c-1.313,0.207-2.625,0.411-3.938,0.619c-20.932,108.751-41.91,217.491-62.783,326.255
		c-18.282,95.265-36.371,190.565-54.742,285.812c-2.583,13.393-2.789,20.73,15.801,20.379c70.459-1.338,140.961-0.897,211.44-0.253
		c15.102,0.138,17.723-2.748,14.606-18.436c-33.111-166.65-65.104-333.523-97.518-500.313
		C2588.747,666.998,2580.913,629.018,2573.279,590.999z"/>
	<path fill-rule="evenodd" clip-rule="evenodd" d="M5614.254,1555.46c-14.504,0.003-29.166-1.317-43.47,0.369
		c-14.78,1.742-18.589-5.686-20.808-17.697c-11.369-61.535-23.613-122.912-34.271-184.566c-3.073-17.78-8.884-24.443-28.55-24.082
		c-78.714,1.446-157.473,1.021-236.205,0.252c-16.424-0.159-23.551,2.724-26.618,21.287
		c-10.532,63.755-24.226,126.979-35.848,190.565c-1.862,10.186-4.716,14.271-15.375,14.069c-29.69-0.563-59.411-0.728-89.091,0.052
		c-12.926,0.339-12.664-5.234-10.773-15.038c54.685-283.572,109.238-567.172,163.648-850.797
		c14.51-75.638,29.01-151.284,42.326-227.136c3.175-18.081,9.447-24.25,28.701-23.498c46.205,1.803,92.554,1.417,138.794,0.109
		c15.239-0.431,19.49,4.928,22.031,18.559c20.789,111.537,42.223,222.954,63.496,334.4
		c31.072,162.777,62.146,325.554,93.279,488.319c16.796,87.798,33.567,175.602,50.77,263.317
		c1.963,10.018-1.399,11.868-10.239,11.643C5648.796,1555.146,5631.521,1555.458,5614.254,1555.46z M5368.833,588.311
		c-4.452,4.745-5.28,10.165-6.311,15.572c-38.245,200.576-76.435,401.161-114.983,601.677c-2.414,12.558-2.528,18.532,13.613,18.338
		c71.81-0.858,143.639-0.808,215.449-0.008c14.446,0.159,16.013-5.079,13.697-16.844
		C5449.764,1000.986,5409.363,794.9,5368.833,588.311z"/>
	<path fill-rule="evenodd" clip-rule="evenodd" d="M3339.026,996.693c0.011,98.127-0.161,196.254,0.106,294.379
		c0.091,33.254,3.855,66.169,18.579,96.53c24.087,49.674,74.247,72.949,135.748,63.967c56.05-8.185,93.403-47.784,102.358-108.564
		c8.61-58.445,3.028-117.247,3.714-175.87c0.194-16.679,3.267-22.863,21.206-21.8c28.232,1.672,56.639,0.544,84.97,0.381
		c7.542-0.043,13.798,0.156,13.53,10.47c-2.076,80.496,6.746,161.599-15.234,240.925
		c-27.83,100.438-106.433,162.923-210.373,167.295c-40.182,1.689-79.963,1.216-118.601-11.534
		c-92.228-30.43-135.676-99.901-152.356-190.744c-5.515-30.031-6.152-60.439-6.193-90.783
		c-0.246-184.505-0.093-369.011-0.142-553.518c-0.015-52.67,4.798-104.351,25.523-153.719
		c31.533-75.118,88.803-117.393,167.468-131.44c58.762-10.494,117.309-7.098,172.439,16.937
		c79.591,34.693,116.038,101.674,130.062,183.511c9.148,53.375,6.994,107.35,7.601,161.184c0.136,12.093-4.061,15.278-15.583,15.006
		c-29.698-0.697-59.439-0.793-89.131,0.04c-12.017,0.336-14.844-3.612-14.993-15.192c-0.604-46.905,3.745-93.983-3.882-140.688
		c-8.04-49.247-28.44-90.439-80.037-105.16c-51.896-14.808-101.993-10.772-140.954,31.991
		c-28.993,31.823-35.311,72.56-35.602,113.729C3338.535,794.909,3339.016,895.802,3339.026,996.693z"/>
	<path fill-rule="evenodd" clip-rule="evenodd" fill="#FED00D" d="M724.768,737.119c-14.508,0.001-29.073-0.795-43.508,0.235
		c-13.274,0.948-16.321-4.542-16.004-16.783c0.733-28.293,0.934-56.881-6.271-84.418c-20.344-77.762-64.659-95.132-123.815-94.778
		c-67.187,0.401-108.415,38.171-119.829,102.605c-14.983,84.58,6.702,157.884,65.042,220.91
		c49.032,52.971,108.213,94.198,162.053,141.595c64.398,56.692,117.589,121.187,134.402,207.622
		c18.461,94.908,10.992,186.828-47.815,268.33c-24.935,34.557-59.921,56.52-100.32,69.26
		c-61.474,19.383-123.736,20.23-185.253,1.692c-89.517-26.975-134.377-93.16-152.134-180.924
		c-9.081-44.882-8.617-90.541-8.498-136.127c0.026-9.832,2.744-13.19,12.782-13.009c30.389,0.549,60.81,0.79,91.181-0.096
		c12.219-0.355,12.912,5.221,12.893,14.786c-0.082,39.276-1.945,78.632,7.06,117.454c15.859,68.376,57.165,98.284,134.707,96.714
		c59.018-1.195,102.419-40.515,114.484-102.198c16.932-86.556-7.061-160.578-66.721-224.11
		c-37.461-39.891-80.851-73.062-122.794-107.865c-64.038-53.138-125.871-108.494-155.725-189.3
		c-33.347-90.262-31.344-180.98,4.632-269.997c25.002-61.861,71.154-101.467,135.925-119.332c63-17.38,125.819-16.874,186.776,5.991
		c82.179,30.829,122.365,96.198,137.914,179.122c6.106,32.563,8.394,65.604,8.631,98.816c0.08,11.078-3.57,14.469-14.208,13.98
		C755.189,736.597,739.967,737.117,724.768,737.119z"/>
	<path fill-rule="evenodd" clip-rule="evenodd" fill="#FED00D" d="M1513.893,998.328c0-179.611,0.244-359.224-0.408-538.834
		c-0.06-16.466,4.419-20.113,20.335-20.036c134.706,0.655,269.417,0.623,404.123,0.029c15.037-0.068,20.723,2.823,19.674,19.067
		c-1.555,24.078-1.53,48.401-0.018,72.484c1.055,16.786-3.09,22.03-20.949,21.839c-93.25-1.003-186.519-0.046-279.771-0.881
		c-15.649-0.14-19.12,3.858-19.034,19.206c0.695,122.962,0.714,245.929-0.017,368.89c-0.093,15.609,3.788,19.252,19.182,19.063
		c73.215-0.893,146.451-0.05,219.671-0.709c13.805-0.125,19.491,2.421,18.676,17.723c-1.357,25.488-1.562,51.175,0.055,76.634
		c1.056,16.624-5.231,19.006-19.905,18.858c-72.528-0.723-145.076,0.27-217.597-0.772c-16.908-0.245-20.08,5.045-20.019,20.705
		c0.576,147.832,0.1,295.668,0.693,443.5c0.063,15.893-3.321,21.696-20.282,20.778c-28.24-1.532-56.695-1.62-84.922,0.027
		c-17.307,1.011-19.844-5.498-19.802-20.811C1514.071,1356.17,1513.893,1177.249,1513.893,998.328z"/>
	<path fill-rule="evenodd" clip-rule="evenodd" fill="#FED00D" d="M2179.01,997.703c0,178.976-0.277,357.951,0.435,536.926
		c0.069,17.539-4.558,22.143-21.668,21.249c-28.945-1.509-58.049-1.102-87.038-0.105c-13.23,0.454-17.578-4.263-15.949-16.581
		c0.358-2.716,0.052-5.521,0.052-8.284c0-355.879,0.13-711.759-0.385-1067.636c-0.027-18.025,3.173-25.368,23.079-23.948
		c27.501,1.961,55.307,1.583,82.865,0.073c15.949-0.874,19.033,4.083,18.982,19.306c-0.587,174.829-0.374,349.658-0.374,524.488
		C2179.009,988.028,2179.009,992.866,2179.01,997.703z"/>
	<path fill-rule="evenodd" clip-rule="evenodd" fill="#FED00D" d="M2040.212,377.837c37.271-55.278,72.047-106.444,106.243-157.998
		c5.481-8.265,12.533-7.002,19.885-7.017c34.55-0.07,69.101-0.032,104.034-0.032c1.618,8.554-5.75,12.051-9.801,16.589
		c-41.391,46.376-83.295,92.295-124.734,138.63c-6.505,7.272-13.329,10.35-23.174,10.049
		C2090.037,377.362,2067.375,377.837,2040.212,377.837z"/>
	<path fill-rule="evenodd" clip-rule="evenodd" d="M5290.538,380.491c37.131-54.43,71.731-104.886,105.93-155.613
		c4.401-6.528,9.205-8.606,16.813-8.529c35.816,0.369,71.638,0.164,111.543,0.164c-19.749,22.024-37.389,41.603-54.925,61.272
		c-27.546,30.896-55.041,61.836-82.512,92.799c-4.586,5.169-8.698,10.171-16.878,10.046
		C5345.197,380.246,5319.876,380.491,5290.538,380.491z"/>
</g>
</svg>
