<svg xmlns="http://www.w3.org/2000/svg" viewBox="0 0 5394.06 1354.02"><defs><style>.cls-1,.cls-2{fill-rule:evenodd;}.cls-2{fill:#fab702;}</style></defs><title>Recurso 1</title><g id="Capa_2" data-name="Capa 2"><g id="Layer_1" data-name="Layer 1"><path class="cls-1" d="M4582.19,1017.93V996c0-248.77.27-497.53-.52-746.3-.06-19.72,5.83-24.12,24-23,24.79,1.49,49.74.73,74.6.2,9.76-.21,14.32,2.65,13,12.85-.45,3.39-.07,6.9-.07,10.35q0,533.81.58,1067.61c.05,21.92-6.2,26.69-26.42,25.44-28.22-1.74-56.68-1.37-84.95-.05-14.35.68-20.34-4.15-24.55-17.55q-103.65-330-208.12-659.66-31.32-99.15-62.77-198.24c-1.51-4.7-1.55-10.7-8.06-14.54v23.4q0,421.86.41,843.73c0,17.72-3.25,24.63-22.38,22.93-21.94-2-44.27-1.6-66.28-.1-18,1.23-24.19-3.12-24-22.93,1.1-112.62.53-225.26.53-337.9q0-366.91-.37-733.85c0-16.33,2.44-22.57,20.7-21.83,40,1.64,80.15,1.07,120.21.2,13.4-.3,18.38,4.1,22.49,17q121,379.5,243.25,758.6c1.77,5.52,3.79,11,5.69,16.44Z"/><path class="cls-2" d="M1111.29,785.81c0,107.05,2,214.15-.73,321.13-1.71,66.72-22.2,128.4-70.64,178.07-34,34.86-75.48,54.7-122.75,62.53-55,9.12-110.18,9.36-163.16-10.45-83.18-31.08-126.5-95.44-144.46-179.46a382.09,382.09,0,0,1-8.36-80.05q0-295.26.12-590.54c.05-46.53,7.41-92.06,26-134.88,39.15-90.1,112.36-130,206.78-136.44,48.67-3.32,96.54,2.19,141.42,22.47,81.41,36.78,117.76,105.34,131.64,189.46,4.74,28.78,5.16,57.74,5.24,86.72.24,90.48.09,181,.09,271.44Zm-124.4-.49h-.08c0-107.78,1.21-215.58-.4-323.34-1.18-79.58-42.36-125.63-118.75-132.65-61.43-5.65-113,20.3-133.64,86.08-6.87,21.91-9.21,44.41-9.2,67.34q.18,297.46.08,594.94c0,20,.49,40,5,59.71,10.83,47.51,34.82,84.53,84.67,96.82s97.94,8.33,136.17-31.11c25.12-25.91,35.44-59.39,35.79-94.44C987.57,1000.89,986.89,893.1,986.89,785.32Z"/><path class="cls-1" d="M3539,759.15c1.7-89.32-5.64-200.06,2.82-310.23,10.87-141.72,95.95-229.78,243.31-233.62,63.63-1.66,123.71,10.68,174.52,51.19,56.86,45.34,79.51,108.37,87.58,178.35,4.76,41.33,3.73,82.73,3.75,124.14q.12,248.63,0,497.26c0,44.31-4.89,87.92-19.63,130.08-32.27,92.33-106.33,148.82-203.69,155-42.16,2.69-84.09,2.15-124.81-11-94.39-30.47-140.43-100.33-157.59-193.74-5.52-30-6-60.4-6.12-90.73C3538.77,964,3539,872.16,3539,759.15Zm387.66,27.29c0-34.53.62-69.08-.13-103.59-1.69-78.63,4.65-157.39-3.83-235.9-7.63-70.67-47.44-112.24-117.87-117.86-60.32-4.82-112.19,20.55-132.41,84.87a229.76,229.76,0,0,0-10.7,69.09q-.12,296.26-.09,592.54a291.53,291.53,0,0,0,8.41,71.66c13.13,52,50.85,85.59,102,91.77,61.92,7.49,110.78-14.72,134.76-62.25,16.19-32.09,19.85-67,19.88-102.36Q3926.71,930.43,3926.64,786.44Z"/><path class="cls-2" d="M2598.91,1342.7c-38.9,0-76.72-.21-114.54.11-12.89.11-11.38-9.87-12.81-17.16-12.6-64.11-25.33-128.19-36.78-192.51-2.16-12.09-5.68-16.12-17.92-16.05q-126.42.66-252.83.05c-10.91,0-14.92,2.88-17,14.58-11.49,65-24.6,129.73-36.48,194.67-2.26,12.35-6.59,17.28-20,16.68-26.89-1.22-53.91-1.24-80.8,0-14.45.66-17.71-4-15.07-17.32,13.19-66.79,26-133.65,38.82-200.52q46.81-244.15,93.53-488.33,37.76-197.58,75.15-395.22c2.21-11.69,7.37-15.12,19.36-14.93,49.73.79,99.48.62,149.21.12,11.59-.12,15.92,2.55,18.34,15.29q87.78,462.14,176.82,924C2577.06,1224.21,2587.66,1282.35,2598.91,1342.7ZM2290.5,378.24l-3.93.62Q2255.16,542,2223.78,705.11,2196.36,848,2169,990.92c-2.58,13.4-2.79,20.73,15.8,20.38,70.46-1.33,141-.89,211.44-.25,15.1.14,17.73-2.75,14.61-18.44-33.11-166.65-65.11-333.52-97.52-500.31C2306,454.24,2298.14,416.26,2290.5,378.24Z"/><path class="cls-1" d="M5331.48,1342.7c-14.5,0-29.17-1.32-43.47.37-14.78,1.74-18.59-5.69-20.81-17.7-11.37-61.53-23.61-122.91-34.27-184.57-3.07-17.78-8.88-24.44-28.55-24.08-78.71,1.45-157.47,1-236.2.25-16.43-.15-23.56,2.73-26.62,21.29-10.54,63.76-24.23,127-35.85,190.57-1.86,10.18-4.72,14.27-15.38,14.07-29.69-.57-59.41-.73-89.09,0-12.92.34-12.66-5.24-10.77-15q82-425.36,163.65-850.8c14.51-75.64,29-151.28,42.32-227.13,3.18-18.08,9.45-24.25,28.71-23.5,46.2,1.8,92.55,1.42,138.79.11,15.24-.43,19.49,4.93,22,18.56,20.79,111.53,42.22,223,63.5,334.4q46.6,244.16,93.28,488.32,25.18,131.69,50.77,263.31c2,10-1.4,11.87-10.24,11.65C5366,1342.38,5348.75,1342.7,5331.48,1342.7ZM5086.06,375.55c-4.45,4.74-5.28,10.16-6.31,15.57q-57.37,300.87-115,601.68c-2.41,12.56-2.52,18.53,13.62,18.34q107.71-1.29,215.45,0c14.44.16,16-5.08,13.69-16.84Q5146.72,685.2,5086.06,375.55Z"/><path class="cls-1" d="M3056.25,783.93c0,98.13-.16,196.26.11,294.38.09,33.26,3.85,66.17,18.58,96.53,24.08,49.67,74.24,73,135.74,64,56.05-8.19,93.41-47.79,102.36-108.57,8.61-58.44,3-117.24,3.72-175.87.19-16.67,3.26-22.86,21.2-21.8,28.23,1.68,56.64.55,85,.39,7.54-.05,13.8.15,13.53,10.47-2.07,80.49,6.75,161.59-15.23,240.92-27.83,100.44-106.43,162.92-210.37,167.3-40.19,1.68-80,1.21-118.61-11.54-92.22-30.43-135.67-99.9-152.35-190.74-5.52-30-6.15-60.44-6.19-90.79q-.37-276.75-.15-553.51c0-52.67,4.8-104.35,25.53-153.72,31.53-75.12,88.8-117.4,167.46-131.44,58.77-10.5,117.31-7.1,172.44,16.93,79.59,34.7,116,101.68,130.07,183.52,9.14,53.37,7,107.35,7.6,161.18.13,12.09-4.06,15.28-15.59,15-29.69-.7-59.44-.8-89.13,0-12,.33-14.84-3.62-15-15.2-.6-46.9,3.74-94-3.88-140.68-8-49.25-28.44-90.44-80-105.16-51.9-14.81-102-10.78-141,32-29,31.82-35.31,72.56-35.61,113.73C3055.76,582.15,3056.24,683,3056.25,783.93Z"/><path class="cls-2" d="M442,524.36c-14.5,0-29.07-.8-43.5.23-13.28.95-16.33-4.54-16-16.78.73-28.29.94-56.88-6.27-84.42-20.34-77.76-64.66-95.13-123.81-94.78C185.21,329,144,366.78,132.57,431.22c-15,84.58,6.7,157.88,65,220.91,49,53,108.21,94.2,162.05,141.59,64.4,56.7,117.59,121.19,134.4,207.63,18.46,94.9,11,186.82-47.81,268.33-24.94,34.55-59.92,56.52-100.32,69.26-61.48,19.38-123.74,20.23-185.25,1.69-89.52-27-134.38-93.16-152.14-180.93-9.08-44.88-8.62-90.54-8.5-136.12,0-9.84,2.75-13.19,12.79-13,30.38.55,60.81.79,91.18-.1,12.22-.35,12.91,5.22,12.89,14.79-.08,39.27-2,78.63,7.06,117.45,15.86,68.38,57.16,98.29,134.71,96.72,59-1.2,102.42-40.52,114.48-102.2,16.93-86.56-7.06-160.58-66.72-224.11C269,873.23,225.58,840.06,183.64,805.25,119.6,752.11,57.76,696.76,27.91,616-5.44,525.69-3.43,435,32.54,346c25-61.87,71.16-101.47,135.93-119.34,63-17.38,125.82-16.87,186.77,6,82.18,30.83,122.37,96.2,137.92,179.13,6.1,32.56,8.39,65.6,8.63,98.81.08,11.08-3.57,14.47-14.21,14C472.41,523.84,457.19,524.36,442,524.36Z"/><path class="cls-2" d="M1231.12,785.57c0-179.61.24-359.23-.41-538.84-.06-16.46,4.42-20.11,20.34-20q202,1,404.12,0c15-.07,20.72,2.82,19.67,19.06a573,573,0,0,0,0,72.49c1.06,16.78-3.09,22-20.94,21.84-93.25-1-186.52-.05-279.78-.89-15.64-.14-19.12,3.86-19,19.21q1,184.44,0,368.89c-.09,15.61,3.79,19.25,19.19,19.06,73.21-.89,146.45,0,219.67-.71,13.8-.12,19.49,2.43,18.67,17.73a659.6,659.6,0,0,0,.06,76.63c1,16.63-5.23,19-19.91,18.86-72.53-.72-145.07.27-217.59-.77-16.91-.25-20.08,5-20,20.7.57,147.84.1,295.67.69,443.5.06,15.9-3.32,21.7-20.28,20.78a756.51,756.51,0,0,0-84.92,0c-17.31,1-19.85-5.5-19.81-20.81Q1231.55,1054,1231.12,785.57Z"/><path class="cls-2" d="M1896.24,784.94c0,179-.28,358,.43,536.93.07,17.54-4.56,22.14-21.67,21.25-28.94-1.51-58-1.11-87-.11-13.23.46-17.57-4.26-15.94-16.58a65.31,65.31,0,0,0,0-8.28q0-533.82-.39-1067.64c0-18,3.18-25.37,23.08-23.95,27.5,2,55.31,1.59,82.87.08,15.95-.88,19,4.08,19,19.3-.59,174.83-.38,349.66-.38,524.49Q1896.23,777.69,1896.24,784.94Z"/><path class="cls-2" d="M1757.44,165.08c37.27-55.28,72-106.45,106.24-158,5.48-8.27,12.53-7,19.89-7,34.55-.07,69.1,0,104,0,1.62,8.55-5.75,12.05-9.8,16.59-41.39,46.37-83.3,92.29-124.74,138.63-6.5,7.27-13.32,10.35-23.17,10.05C1807.26,164.6,1784.6,165.08,1757.44,165.08Z"/><path class="cls-1" d="M5007.76,167.73c37.13-54.43,71.73-104.89,105.93-155.61,4.4-6.53,9.21-8.61,16.82-8.53,35.81.37,71.63.16,111.54.16-19.75,22-37.39,41.6-54.93,61.27q-41.31,46.35-82.51,92.8c-4.58,5.17-8.7,10.17-16.88,10.05C5062.42,167.48,5037.1,167.73,5007.76,167.73Z"/></g></g></svg>